<svg width="29" height="24" viewBox="0 0 29 24" fill="none" xmlns="http://www.w3.org/2000/svg">
<path d="M16.5235 4.31832C15.9849 4.26006 15.4377 4.22668 14.8829 4.21837C12.4589 4.22912 9.94613 4.81875 7.56764 5.94856C5.80164 6.82198 4.08136 8.05504 2.58737 9.57604C1.85364 10.3525 0.917181 11.4767 0.765869 12.6762C0.783751 13.7153 1.89884 14.9978 2.58737 15.7764C3.98833 17.2377 5.66381 18.4354 7.56764 19.4039C7.63235 19.4353 7.69728 19.4663 7.76236 19.4969L5.99604 22.5816L8.39606 24L21.37 1.4119L19.0599 0L16.5235 4.31832ZM22.0018 5.85894L20.2389 8.91428C21.0499 9.96793 21.5313 11.2673 21.5313 12.6762C21.5313 16.188 18.5545 19.0351 14.8812 19.0351C14.7224 19.0351 14.5685 19.018 14.4125 19.0075L13.2458 21.0272C13.7839 21.0848 14.3279 21.1268 14.8829 21.134C17.3092 21.1232 19.8206 20.5267 22.1965 19.4039C23.9625 18.5305 25.6845 17.2974 27.1785 15.7764C27.9123 15 28.8487 13.8757 29 12.6762C28.9821 11.6372 27.867 10.3547 27.1785 9.57601C25.7775 8.11476 24.1003 6.91699 22.1965 5.94851C22.1323 5.91736 22.0665 5.88934 22.0018 5.85894ZM14.8812 6.31735C15.0423 6.31735 15.2021 6.32379 15.3603 6.33457L13.9937 8.70061C12.0758 9.08945 10.6368 10.7212 10.6368 12.6745C10.6368 13.1652 10.7272 13.6349 10.8936 14.0703C10.8937 14.0708 10.8934 14.0716 10.8936 14.0721L9.52354 16.445C8.71061 15.3904 8.23107 14.0868 8.23107 12.6762C8.2311 9.16443 11.208 6.31732 14.8812 6.31735ZM18.8568 11.3062L15.7773 16.6415C17.6849 16.2453 19.1136 14.621 19.1136 12.6745C19.1136 12.1928 19.0175 11.7348 18.8568 11.3062Z" fill="#666666"/>
</svg>
