<svg width="23" height="23" viewBox="0 0 23 23" fill="none" xmlns="http://www.w3.org/2000/svg">
<path d="M22.3672 11.7525C22.3672 11.0047 22.3057 10.253 22.1745 9.51733H11.6529V13.7532H17.6781C17.4281 15.1194 16.6248 16.328 15.4484 17.0958V19.8443H19.0431C21.154 17.9285 22.3672 15.0992 22.3672 11.7525Z" fill="#4285F4"/>
<path d="M11.6529 22.4999C14.6614 22.4999 17.1986 21.5258 19.0471 19.8444L15.4525 17.0959C14.4524 17.7669 13.1613 18.1468 11.657 18.1468C8.74684 18.1468 6.27935 16.2107 5.39401 13.6078H1.68457V16.4411C3.57823 20.1557 7.43522 22.4999 11.6529 22.4999Z" fill="#34A853"/>
<path d="M5.38992 13.6078C4.92265 12.2416 4.92265 10.7623 5.38992 9.39611V6.56274H1.68459C0.10245 9.67096 0.10245 13.3329 1.68459 16.441L5.38992 13.6078Z" fill="#FBBC04"/>
<path d="M11.6529 4.853C13.2432 4.82875 14.7803 5.41886 15.9321 6.5021L19.1168 3.36154C17.1003 1.49419 14.4237 0.467552 11.6529 0.499887C7.4352 0.499887 3.57823 2.84419 1.68457 6.56272L5.3899 9.39609C6.27114 6.78906 8.74273 4.853 11.6529 4.853Z" fill="#EA4335"/>
</svg>
