<svg width="186" height="76" viewBox="0 0 186 76" fill="none" xmlns="http://www.w3.org/2000/svg">
<path d="M24.4296 38.7339V43.0697H15.8047V71.1358H10.4898V43.0697H1.81824V38.7339H24.4296ZM53.356 57.6622C53.356 58.6257 53.2939 59.496 53.1695 60.273H33.5419C33.6973 62.3243 34.4588 63.9716 35.8264 65.2149C37.1939 66.4581 38.8723 67.0797 40.8615 67.0797C43.7209 67.0797 45.7412 65.8831 46.9223 63.4899H52.6567C51.8797 65.852 50.4655 67.7946 48.4142 69.3175C46.3939 70.8094 43.8763 71.5554 40.8615 71.5554C38.4061 71.5554 36.1993 71.0114 34.2412 69.9236C32.3142 68.8047 30.7913 67.2507 29.6723 65.2615C28.5845 63.2412 28.0406 60.9101 28.0406 58.2683C28.0406 55.6264 28.569 53.3109 29.6257 51.3217C30.7136 49.3014 32.221 47.7474 34.148 46.6595C36.1061 45.5717 38.3439 45.0278 40.8615 45.0278C43.2858 45.0278 45.4459 45.5562 47.3419 46.6129C49.2378 47.6697 50.7141 49.1615 51.7709 51.0886C52.8276 52.9845 53.356 55.1757 53.356 57.6622ZM47.8081 55.9838C47.777 54.0257 47.0777 52.4561 45.7101 51.275C44.3426 50.094 42.6486 49.5034 40.6284 49.5034C38.7946 49.5034 37.225 50.094 35.9196 51.275C34.6142 52.425 33.8372 53.9946 33.5885 55.9838H47.8081ZM82.1302 57.6622C82.1302 58.6257 82.068 59.496 81.9437 60.273H62.3161C62.4715 62.3243 63.233 63.9716 64.6005 65.2149C65.9681 66.4581 67.6465 67.0797 69.6356 67.0797C72.4951 67.0797 74.5153 65.8831 75.6964 63.4899H81.4309C80.6538 65.852 79.2397 67.7946 77.1883 69.3175C75.168 70.8094 72.6505 71.5554 69.6356 71.5554C67.1802 71.5554 64.9735 71.0114 63.0154 69.9236C61.0884 68.8047 59.5654 67.2507 58.4465 65.2615C57.3587 63.2412 56.8148 60.9101 56.8148 58.2683C56.8148 55.6264 57.3431 53.3109 58.3999 51.3217C59.4877 49.3014 60.9951 47.7474 62.9222 46.6595C64.8803 45.5717 67.1181 45.0278 69.6356 45.0278C72.06 45.0278 74.2201 45.5562 76.116 46.6129C78.012 47.6697 79.4883 49.1615 80.5451 51.0886C81.6018 52.9845 82.1302 55.1757 82.1302 57.6622ZM76.5822 55.9838C76.5512 54.0257 75.8518 52.4561 74.4843 51.275C73.1167 50.094 71.4228 49.5034 69.4025 49.5034C67.5688 49.5034 65.9992 50.094 64.6938 51.275C63.3884 52.425 62.6113 53.9946 62.3627 55.9838H76.5822ZM108.294 38.7339V43.0697H99.6686V71.1358H94.3537V43.0697H85.6821V38.7339H108.294ZM118.991 49.1771C119.768 47.8717 120.794 46.8616 122.068 46.1467C123.373 45.4008 124.912 45.0278 126.684 45.0278V50.5291H125.331C123.249 50.5291 121.664 51.0575 120.576 52.1142C119.519 53.171 118.991 55.0048 118.991 57.6156V71.1358H113.676V45.4474H118.991V49.1771ZM155.113 57.6622C155.113 58.6257 155.051 59.496 154.926 60.273H135.299C135.454 62.3243 136.216 63.9716 137.583 65.2149C138.951 66.4581 140.629 67.0797 142.618 67.0797C145.478 67.0797 147.498 65.8831 148.679 63.4899H154.413C153.636 65.852 152.222 67.7946 150.171 69.3175C148.151 70.8094 145.633 71.5554 142.618 71.5554C140.163 71.5554 137.956 71.0114 135.998 69.9236C134.071 68.8047 132.548 67.2507 131.429 65.2615C130.341 63.2412 129.797 60.9101 129.797 58.2683C129.797 55.6264 130.326 53.3109 131.382 51.3217C132.47 49.3014 133.978 47.7474 135.905 46.6595C137.863 45.5717 140.101 45.0278 142.618 45.0278C145.042 45.0278 147.203 45.5562 149.099 46.6129C150.994 47.6697 152.471 49.1615 153.528 51.0886C154.584 52.9845 155.113 55.1757 155.113 57.6622ZM149.565 55.9838C149.534 54.0257 148.834 52.4561 147.467 51.275C146.099 50.094 144.405 49.5034 142.385 49.5034C140.551 49.5034 138.982 50.094 137.676 51.275C136.371 52.425 135.594 53.9946 135.345 55.9838H149.565ZM183.887 57.6622C183.887 58.6257 183.825 59.496 183.7 60.273H164.073C164.228 62.3243 164.99 63.9716 166.357 65.2149C167.725 66.4581 169.403 67.0797 171.392 67.0797C174.252 67.0797 176.272 65.8831 177.453 63.4899H183.188C182.411 65.852 180.996 67.7946 178.945 69.3175C176.925 70.8094 174.407 71.5554 171.392 71.5554C168.937 71.5554 166.73 71.0114 164.772 69.9236C162.845 68.8047 161.322 67.2507 160.203 65.2615C159.115 63.2412 158.571 60.9101 158.571 58.2683C158.571 55.6264 159.1 53.3109 160.157 51.3217C161.244 49.3014 162.752 47.7474 164.679 46.6595C166.637 45.5717 168.875 45.0278 171.392 45.0278C173.817 45.0278 175.977 45.5562 177.873 46.6129C179.769 47.6697 181.245 49.1615 182.302 51.0886C183.359 52.9845 183.887 55.1757 183.887 57.6622ZM178.339 55.9838C178.308 54.0257 177.609 52.4561 176.241 51.275C174.873 50.094 173.18 49.5034 171.159 49.5034C169.325 49.5034 167.756 50.094 166.45 51.275C165.145 52.425 164.368 53.9946 164.119 55.9838H178.339Z" fill="#440376"/>
<path d="M120.924 14.5692C109.269 48.564 114.881 48.564 96.6423 48.564C78.4039 48.564 63.6188 37.6926 63.6188 24.282C85.9582 38.8512 67.5039 24.282 84.9869 0C96.6423 24.282 101.499 37.8799 120.924 14.5692Z" fill="#440376"/>
</svg>
